<?xml version="1.0" encoding="UTF-8"?>
<svg viewBox="0 0 180 400" version="1.1" xmlns="http://www.w3.org/2000/svg" xmlns:xlink="http://www.w3.org/1999/xlink">
	<title>Coffee Cup</title>
	<style>
		.initial { 
			fill:white;
			font: bold 90px sans-serif;
		}
	</style>
	
	<defs>
        <linearGradient x1="15.6881593%" y1="-12.332927%" x2="96.8508849%" y2="122.885703%" id="paperCupGradient">
            <stop stop-color="#a27250" offset="0%"></stop>
            <stop stop-color="#6f4e37" offset="100%"></stop>
        </linearGradient>
        <linearGradient x1="15.6881593%" y1="-12.332927%" x2="96.8508849%" y2="122.885703%" id="paperSleeveGradient">
            <stop stop-color="#805a3f" offset="0%"></stop>
            <stop stop-color="#5e422f" offset="100%"></stop>
        </linearGradient>
        <linearGradient x1="15.6881593%" y1="-12.332927%" x2="96.8508849%" y2="122.885703%" id="cap">
            <stop stop-color="#3c2a1e" offset="0%"></stop>
            <stop stop-color="#4d3626" offset="100%"></stop>
        </linearGradient>
    </defs>
	<g transform="translate(10,100)">
		<path id="sleeve" fill="url(#cap)" d="
				M0,15
				A3,3 0 0,1 3,12
				L10,12
				L10,3
				A3,3 0 0,1 13,0
				L120,0
				A3,3 0 0,1 132,0
				L144,0
				A3,3 0 0,1 147,3
				L147,12
				L157,12
				A3,3 0 0,1 160,15
				L160,32
				A3,3 0 0,1 157,35
				L3,35
				A3,3 0 0,1 0,32
				Z"
			/>
	</g>
	
	<g transform="translate(10,140)">
		<path id="paperCup" fill="url(#paperCupGradient)" d="
			M0,3
			A3,3 0 0,1 3,0
			L157,0
			A3,3 0 0,1 160,3
			L132,247
			A3,3 0 0,1 129,250
			L22,250
			A3,3 0 0,1 19,247
			Z" 
		/>
		<g transform="translate(0,60)">
			<path id="sleeve" fill="url(#paperSleeveGradient)" d="
				M4,3
				A3,3 0 0,1 7,0
				L152,0
				A3,3 0 0,1 155,3
				L140,107
				A3,3 0 0,1 137,110
				L15,110
				A3,3 0 0,1 12,107
				Z"
			/>
			<text x="45" y="90" class="initial">S</text>
		</g>
	</g>
	

</svg>